<svg width="77" height="32" viewBox="0 0 77 32" fill="none" xmlns="http://www.w3.org/2000/svg">
<rect width="77" height="32" rx="11" fill="#3F8CFF"/>
<path d="M15.6895 19.4961V17.2812H13.4746V15.9805H15.6895V13.7656H16.9785V15.9805H19.2051V17.2812H16.9785V19.4961H15.6895ZM33.0684 15.3594V16.4258H23.4004V15.3594H33.0684ZM24.5254 19.0859C24.5254 17.8555 25.9141 17.1582 28.2168 17.1641C30.502 17.1582 31.8789 17.8555 31.8848 19.0859C31.8789 20.334 30.502 21.0312 28.2168 21.0312C25.9141 21.0312 24.5254 20.334 24.5254 19.0859ZM24.584 14.5273V10.7891H31.8965V11.8438H25.8848V13.4844H31.9551V14.5273H24.584ZM25.8496 19.0859C25.8438 19.7129 26.6758 20.0234 28.2168 20.0234C29.7344 20.0234 30.5723 19.7129 30.584 19.0859C30.5723 18.4883 29.7344 18.1602 28.2168 18.1602C26.6758 18.1602 25.8438 18.4883 25.8496 19.0859ZM43.4395 16.1797V17.2344H33.7598V16.1797H37.9551V15.3008H34.9902V12.4883H40.9434V11.7031H34.9551V10.6836H42.2441V13.4375H36.2793V14.2812H42.4551V15.3008H39.2441V16.1797H43.4395ZM34.8379 18.9336V17.9023H42.3027V20.9727H40.9902V18.9336H34.8379ZM52.4395 10.4492V14.668H54.0684V15.7461H52.4395V21.043H51.1504V10.4492H52.4395ZM44.084 13.1211V12.0781H46.5918V10.6016H47.8926V12.0781H50.3301V13.1211H44.084ZM44.5762 16.3086C44.5645 14.8438 45.7012 13.8066 47.248 13.8125C48.7715 13.8066 49.9023 14.8438 49.9082 16.3086C49.9023 17.7676 48.7715 18.793 47.248 18.793C45.7012 18.793 44.5645 17.7676 44.5762 16.3086ZM45.8184 16.3086C45.8125 17.1699 46.416 17.7207 47.248 17.7148C48.0625 17.7207 48.6543 17.1699 48.666 16.3086C48.6543 15.4473 48.0625 14.8789 47.248 14.8789C46.416 14.8789 45.8125 15.4473 45.8184 16.3086ZM63.3613 10.4492V21.043H62.0488V10.4492H63.3613ZM54.584 18.125C57.3613 16.8066 58.6387 15.0137 58.873 12.6055H55.123V11.5742H60.1973C60.1973 14.7266 58.9727 17.4043 55.2637 19.168L54.584 18.125Z" fill="white"/>
</svg>
