<svg width="18" height="20" viewBox="0 0 18 20" fill="none" xmlns="http://www.w3.org/2000/svg">
<path d="M4.39601 7.49211C4.51001 9.17311 3.62201 10.6071 2.41001 10.6941C1.20001 10.7811 0.125011 9.48911 0.0100112 7.80711C-0.104989 6.12611 0.784011 4.69211 1.99501 4.60511C3.20601 4.51811 4.28101 5.81011 4.39501 7.49211H4.39601ZM12.736 0.522107C11.56 0.214107 10.278 1.28911 9.87401 2.92211C9.46801 4.55511 10.093 6.12911 11.269 6.43711C12.446 6.74511 13.729 5.67011 14.133 4.03711C14.66 1.91011 13.019 0.595107 12.737 0.522107H12.736ZM15.496 6.02811C14.258 6.04611 13.276 7.25411 13.303 9.12411C13.33 10.9941 14.353 11.8461 15.593 11.8271C16.829 11.8081 17.813 10.9261 17.785 9.05511C17.749 6.62111 15.792 6.02311 15.495 6.02811H15.496ZM6.52801 0.110107C5.35101 0.110107 4.39601 1.46411 4.39601 3.13311C4.39601 4.80311 5.35101 6.15611 6.52801 6.15611C7.70601 6.15611 8.66101 4.80311 8.66101 3.13311C8.66101 1.46311 7.70601 0.110107 6.52801 0.110107ZM6.25601 9.49911C5.57601 10.5011 4.80401 11.4791 3.30601 12.7611C1.80901 14.0431 1.17401 14.9281 1.17401 16.2331C1.17401 17.5371 1.90001 19.7041 3.96401 19.7041C6.02901 19.7041 7.02701 19.2381 8.66101 19.2381C10.294 19.2381 11.384 19.8901 13.448 19.8901C15.512 19.8901 16.374 17.8871 16.374 16.5821C16.374 15.2771 16.016 14.5391 14.362 13.0501C13.302 12.0951 12.404 11.3171 10.997 9.31311C10.302 8.32311 9.50001 8.19511 8.66101 8.19511C7.82101 8.19511 6.93701 8.49711 6.25601 9.49911Z" fill="#21272A"/>
</svg>
