<svg width="19" height="19" viewBox="0 0 19 19" fill="none" xmlns="http://www.w3.org/2000/svg">
<path fill-rule="evenodd" clip-rule="evenodd" d="M17.9399 11.6139C17.9399 9.91814 16.7699 8.50214 15.1986 8.09864V7.60063C15.1986 4.45738 12.6419 1.90063 9.49862 1.90063C6.35612 1.90063 3.79937 4.45738 3.79937 7.60063V8.09864C2.22737 8.50214 1.05737 9.91814 1.05737 11.6139C1.05837 12.5794 1.44242 13.5051 2.12523 14.1878C2.80805 14.8705 3.73383 15.2543 4.69937 15.2551C4.93807 15.2551 5.16699 15.1603 5.33577 14.9915C5.50455 14.8228 5.59937 14.5938 5.59937 14.3551V7.60063C5.59937 5.45038 7.34837 3.70063 9.49862 3.70063C11.6489 3.70063 13.3986 5.45038 13.3986 7.60063V13.9824L11.4936 15.8874C11.4102 15.9711 11.3111 16.0374 11.202 16.0826C11.0928 16.1278 10.9758 16.1509 10.8576 16.1506H9.41537C9.17668 16.1506 8.94776 16.2455 8.77898 16.4142C8.6102 16.583 8.51537 16.8119 8.51537 17.0506C8.51537 17.2893 8.6102 17.5182 8.77898 17.687C8.94776 17.8558 9.17668 17.9506 9.41537 17.9506H10.8576C11.5791 17.9506 12.2571 17.6701 12.7671 17.1601L14.7134 15.2131C16.5239 15.0046 17.9399 13.4799 17.9399 11.6139Z" fill="#8B95A1"/>
</svg>
