<svg width="100" height="99" viewBox="0 0 100 99" fill="none" xmlns="http://www.w3.org/2000/svg">
<path fill-rule="evenodd" clip-rule="evenodd" d="M63.6739 82.6926C62.9447 82.6929 62.2225 82.5492 61.549 82.2696C60.8754 81.99 60.2638 81.5801 59.7491 81.0634L31.9794 53.2937C31.4635 52.7779 31.0542 52.1656 30.775 51.4916C30.4958 50.8177 30.3521 50.0953 30.3521 49.3658C30.3521 48.6363 30.4958 47.9139 30.775 47.24C31.0542 46.566 31.4635 45.9537 31.9794 45.4379L59.7491 17.6682C60.2608 17.1345 60.874 16.7083 61.5525 16.4147C62.2311 16.1211 62.9615 15.9659 63.7008 15.9583C64.4401 15.9507 65.1735 16.0907 65.858 16.3703C66.5425 16.6498 67.1643 17.0632 67.6869 17.5863C68.2095 18.1093 68.6224 18.7314 68.9014 19.4161C69.1804 20.1008 69.3199 20.8343 69.3117 21.5736C69.3035 22.313 69.1477 23.0432 68.8536 23.7215C68.5594 24.3999 68.1328 25.0126 67.5987 25.5239L43.7599 49.3689L67.5987 73.2077C68.3766 73.984 68.9066 74.9738 69.1217 76.0515C69.3368 77.1293 69.2274 78.2467 68.8072 79.2622C68.3869 80.2777 67.6749 81.1457 66.7611 81.7564C65.8474 82.367 64.773 82.6928 63.6739 82.6926Z" fill="#8B95A1"/>
</svg>
