<svg width="99" height="100" viewBox="0 0 99 100" fill="none" xmlns="http://www.w3.org/2000/svg">
<path fill-rule="evenodd" clip-rule="evenodd" d="M69.4744 28.2812C69.4747 30.9258 68.954 33.5445 67.9422 35.9879C66.9305 38.4313 65.4473 40.6514 63.5775 42.5216C61.7077 44.3918 59.4878 45.8754 57.0446 46.8877C54.6015 47.9 51.9828 48.4212 49.3382 48.4214C43.9973 48.422 38.8748 46.3008 35.0978 42.5245C31.3207 38.7483 29.1985 33.6263 29.198 28.2853C29.1977 25.6407 29.7183 23.0219 30.7301 20.5786C31.7419 18.1352 33.2251 15.915 35.0949 14.0448C38.8711 10.2678 43.9931 8.14557 49.3341 8.14502C54.6751 8.14447 59.7976 10.2656 63.5746 14.0419C67.3516 17.8182 69.4738 22.9402 69.4744 28.2812ZM49.3362 54.5822C20.3363 54.5822 9.05566 73.0378 9.05566 81.6237C9.05566 90.2056 33.0693 92.493 49.3362 92.493C65.6031 92.493 89.6167 90.2056 89.6167 81.6237C89.6167 73.0378 78.336 54.5822 49.3362 54.5822Z" fill="#8B95A1"/>
</svg>
