<svg width="35" height="35" viewBox="0 0 35 35" fill="none" xmlns="http://www.w3.org/2000/svg">
<path fill-rule="evenodd" clip-rule="evenodd" d="M22.4222 5.6876C22.9253 5.6876 23.4284 5.88448 23.8222 6.25635C24.1895 6.62531 24.3958 7.12476 24.3958 7.64541C24.3958 8.16606 24.1895 8.66552 23.8222 9.03448L15.3565 17.5001L23.8222 25.9439C24.1895 26.3128 24.3958 26.8123 24.3958 27.3329C24.3958 27.8536 24.1895 28.353 23.8222 28.722C23.4532 29.0893 22.9538 29.2956 22.4331 29.2956C21.9125 29.2956 21.413 29.0893 21.044 28.722L11.2003 18.8782C10.8329 18.5093 10.6267 18.0098 10.6267 17.4892C10.6267 16.9685 10.8329 16.4691 11.2003 16.1001L21.044 6.25635C21.4159 5.88448 21.919 5.6876 22.4222 5.6876Z" fill="#2E3B4C"/>
</svg>
