<svg width="19" height="19" viewBox="0 0 19 19" fill="none" xmlns="http://www.w3.org/2000/svg">
<path fill-rule="evenodd" clip-rule="evenodd" d="M1.32367 9.32671C1.32367 8.87107 1.69303 8.50171 2.14867 8.50171H10.9454C11.4011 8.50171 11.7704 8.87107 11.7704 9.32671C11.7704 9.78234 11.4011 10.1517 10.9454 10.1517H2.14867C1.69303 10.1517 1.32367 9.78234 1.32367 9.32671Z" fill="#8B95A1"/>
<path fill-rule="evenodd" clip-rule="evenodd" d="M6.65689 4.81963C6.97901 5.14187 6.97892 5.66423 6.65667 5.98636L3.31551 9.32624L6.65678 12.6675C6.97896 12.9897 6.97896 13.5121 6.65678 13.8342C6.3346 14.1564 5.81224 14.1564 5.49006 13.8342L1.56531 9.90949C1.41057 9.75476 1.32365 9.54488 1.32367 9.32605C1.32369 9.10722 1.41065 8.89736 1.56542 8.74266L5.49017 4.81941C5.81241 4.49729 6.33477 4.49739 6.65689 4.81963Z" fill="#8B95A1"/>
<path fill-rule="evenodd" clip-rule="evenodd" d="M11.1766 3.85776C10.918 3.85776 10.67 3.96049 10.4871 4.14333C10.3043 4.32618 10.2016 4.57418 10.2016 4.83276V6.10326C10.2016 6.5589 9.83221 6.92826 9.37657 6.92826C8.92094 6.92826 8.55157 6.5589 8.55157 6.10326V4.83276C8.55157 4.13657 8.82814 3.46889 9.32042 2.97661C9.8127 2.48433 10.4804 2.20776 11.1766 2.20776H14.5126C15.2088 2.20776 15.8764 2.48433 16.3687 2.97661C16.861 3.46889 17.1376 4.13657 17.1376 4.83276V13.8215C17.1373 14.5175 16.8606 15.1853 16.3683 15.6773C15.8761 16.1694 15.2086 16.4458 14.5126 16.4458H11.1766C10.4804 16.4458 9.8127 16.1692 9.32042 15.6769C8.82814 15.1846 8.55157 14.517 8.55157 13.8208V12.5533C8.55157 12.0976 8.92094 11.7283 9.37657 11.7283C9.83221 11.7283 10.2016 12.0976 10.2016 12.5533V13.8208C10.2016 14.0794 10.3043 14.3273 10.4871 14.5102C10.67 14.693 10.918 14.7958 11.1766 14.7958H14.5126C14.7711 14.7958 15.019 14.6931 15.2019 14.5103C15.3847 14.3276 15.4875 14.0797 15.4876 13.8212V4.83276C15.4876 4.57418 15.3849 4.32618 15.202 4.14333C15.0192 3.96049 14.7712 3.85776 14.5126 3.85776H11.1766Z" fill="#8B95A1"/>
</svg>
