<?xml version="1.0" standalone="no"?>
<!DOCTYPE svg PUBLIC "-//W3C//DTD SVG 20010904//EN"
 "http://www.w3.org/TR/2001/REC-SVG-20010904/DTD/svg10.dtd">
<svg version="1.0" xmlns="http://www.w3.org/2000/svg"
 width="512.000000pt" height="512.000000pt" viewBox="0 0 512.000000 512.000000"
 preserveAspectRatio="xMidYMid meet">

<g transform="translate(0.000000,512.000000) scale(0.100000,-0.100000)"
fill="#000000" stroke="none">
<path d="M1670 4745 c-192 -53 -360 -213 -456 -434 -107 -248 -122 -576 -38
-841 106 -338 341 -550 609 -552 98 0 161 14 241 53 327 161 508 639 419 1106
-61 320 -248 572 -490 657 -69 25 -215 30 -285 11z"/>
<path d="M3235 4753 c-235 -52 -425 -245 -521 -527 -143 -418 -27 -945 259
-1176 115 -93 222 -132 362 -132 268 2 503 214 609 552 84 265 69 593 -38 841
-97 224 -268 385 -461 434 -55 14 -165 18 -210 8z"/>
<path d="M370 3381 c-89 -29 -141 -60 -200 -120 -64 -65 -108 -145 -142 -251
-19 -63 -23 -96 -22 -205 1 -152 23 -252 83 -380 49 -101 83 -151 156 -226
354 -361 853 -174 894 336 17 211 -39 414 -165 591 -148 210 -407 319 -604
255z"/>
<path d="M4527 3390 c-124 -21 -291 -136 -381 -264 -226 -318 -228 -739 -5
-972 101 -104 219 -151 359 -141 171 12 349 123 463 289 47 68 103 196 128
288 33 124 33 315 1 420 -34 106 -78 186 -142 251 -111 113 -255 157 -423 129z"/>
<path d="M2380 2844 c-160 -29 -258 -59 -385 -117 -472 -215 -886 -701 -1063
-1247 -46 -143 -66 -235 -81 -372 -31 -278 12 -454 143 -583 111 -109 231
-153 446 -162 150 -6 261 7 665 76 456 78 438 78 945 -9 337 -58 497 -75 640
-67 364 20 565 202 587 532 10 166 -21 376 -89 585 -177 546 -592 1033 -1063
1247 -201 92 -303 114 -535 118 -102 2 -196 1 -210 -1z"/>
</g>
</svg>
