<svg width="59" height="59" viewBox="0 0 59 59" fill="none" xmlns="http://www.w3.org/2000/svg">
<path fill-rule="evenodd" clip-rule="evenodd" d="M40.543 31.9585H31.9388V40.5627C31.9388 41.2147 31.6798 41.8399 31.2188 42.301C30.7578 42.762 30.1325 43.021 29.4805 43.021C28.8285 43.021 28.2032 42.762 27.7422 42.301C27.2812 41.8399 27.0222 41.2147 27.0222 40.5627V31.9585H18.418C17.766 31.9585 17.1407 31.6995 16.6797 31.2385C16.2187 30.7774 15.9597 30.1522 15.9597 29.5002C15.9597 28.8482 16.2187 28.2229 16.6797 27.7619C17.1407 27.3008 17.766 27.0418 18.418 27.0418H27.0222V18.4377C27.0222 17.7857 27.2812 17.1604 27.7422 16.6994C28.2032 16.2383 28.8285 15.9793 29.4805 15.9793C30.1325 15.9793 30.7578 16.2383 31.2188 16.6994C31.6798 17.1604 31.9388 17.7857 31.9388 18.4377V27.0418H40.543C41.195 27.0418 41.8203 27.3008 42.2813 27.7619C42.7423 28.2229 43.0013 28.8482 43.0013 29.5002C43.0013 30.1522 42.7423 30.7774 42.2813 31.2385C41.8203 31.6995 41.195 31.9585 40.543 31.9585ZM29.5002 2.4585C14.5658 2.4585 2.4585 14.5658 2.4585 29.5002C2.4585 44.4345 14.5658 56.5418 29.5002 56.5418C44.4345 56.5418 56.5418 44.4345 56.5418 29.5002C56.5418 14.5658 44.4345 2.4585 29.5002 2.4585Z" fill="#D5D6D7"/>
</svg>
