<svg width="22" height="24" viewBox="0 0 22 24" fill="none" xmlns="http://www.w3.org/2000/svg">
<path fill-rule="evenodd" clip-rule="evenodd" d="M16.2944 6.19764C16.2945 6.89403 16.1574 7.58361 15.891 8.22702C15.6245 8.87043 15.234 9.45506 14.7416 9.94753C14.2492 10.44 13.6647 10.8307 13.0213 11.0972C12.378 11.3638 11.6884 11.501 10.992 11.5011C9.58562 11.5012 8.23674 10.9427 7.24215 9.94829C6.24756 8.9539 5.68873 7.60514 5.68858 6.19872C5.68851 5.50233 5.8256 4.81275 6.09204 4.16934C6.35847 3.52594 6.74902 2.94131 7.24139 2.44884C8.23577 1.45424 9.58454 0.895407 10.991 0.895264C12.3974 0.89512 13.7463 1.45368 14.7408 2.44807C15.7354 3.44246 16.2943 4.79122 16.2944 6.19764ZM10.9915 13.1234C3.35508 13.1234 0.384583 17.9832 0.384583 20.2441C0.384583 22.504 6.708 23.1063 10.9915 23.1063C15.275 23.1063 21.5984 22.504 21.5984 20.2441C21.5984 17.9832 18.6279 13.1234 10.9915 13.1234Z" fill="#8B95A1"/>
</svg>
