<svg width="17" height="18" viewBox="0 0 17 18" fill="none" xmlns="http://www.w3.org/2000/svg">
<path fill-rule="evenodd" clip-rule="evenodd" d="M8.4986 6.94761C8.2599 6.94761 8.03098 6.85279 7.8622 6.684C7.69342 6.51522 7.5986 6.2863 7.5986 6.04761C7.5986 5.80891 7.69342 5.57999 7.8622 5.41121C8.03098 5.24243 8.2599 5.14761 8.4986 5.14761C8.73729 5.14761 8.96621 5.24243 9.13499 5.41121C9.30378 5.57999 9.3986 5.80891 9.3986 6.04761C9.3986 6.2863 9.30378 6.51522 9.13499 6.684C8.96621 6.85279 8.73729 6.94761 8.4986 6.94761ZM9.2486 12.5239C9.2486 12.7228 9.16958 12.9135 9.02893 13.0542C8.88827 13.1948 8.69751 13.2739 8.4986 13.2739C8.29968 13.2739 8.10892 13.1948 7.96827 13.0542C7.82761 12.9135 7.7486 12.7228 7.7486 12.5239V8.77386C7.7486 8.57495 7.82761 8.38418 7.96827 8.24353C8.10892 8.10288 8.29968 8.02386 8.4986 8.02386C8.69751 8.02386 8.88827 8.10288 9.02893 8.24353C9.16958 8.38418 9.2486 8.57495 9.2486 8.77386V12.5239ZM8.4986 0.797607C3.94235 0.797607 0.248596 4.49136 0.248596 9.04761C0.248596 13.6039 3.94235 17.2976 8.4986 17.2976C13.0548 17.2976 16.7486 13.6039 16.7486 9.04761C16.7486 4.49136 13.0548 0.797607 8.4986 0.797607Z" fill="#8B95A1"/>
</svg>
